<?xml version="1.0" encoding="utf-8"?>
<!-- Generator: Adobe Illustrator 25.2.0, SVG Export Plug-In . SVG Version: 6.00 Build 0)  -->
<svg version="1.1" id="Layer_1" xmlns="http://www.w3.org/2000/svg" xmlns:xlink="http://www.w3.org/1999/xlink" x="0px" y="0px"
	 viewBox="0 0 1200 1200" style="enable-background:new 0 0 1200 1200;" xml:space="preserve">
<style type="text/css">
	.st0{display:none;}
	.st1{display:none;fill:#FFC815;}
	.st2{font-family:'Poppins-Bold';}
	.st3{font-size:60px;}
	.st4{letter-spacing:3;}
	.st5{fill:#1D1D1B;}
	.st6{font-family:'Poppins-Light';}
	.st7{font-size:35.2761px;}
	.st8{letter-spacing:1;}
	.st9{display:inline;fill:#FFFFFF;}
</style>
<rect class="st0" width="1200" height="1200"/>
<text transform="matrix(1 0 0 1 241.7148 737.0547)" class="st1 st2 st3 st4">GODDY SMART SERLLY</text>
<g>
	<path class="st5" d="M448.94,551.8c-11.2-11.2-30.48-4.18-31.71,11.62c-2.11,27.21,7.24,55.15,28.05,75.96
		c29.79,29.79,74.18,36.1,110.15,18.91c9.66-4.61,18.71-10.92,26.7-18.91c10.16-10.16,17.59-22.02,22.29-34.67
		c12.77-34.38,5.34-74.56-22.29-102.19L517.6,438l-31.06,31.06c-8.05,8.05-8.04,21.1,0.01,29.14l0,0
		c8.05,8.04,21.08,8.03,29.12-0.01l4.74-4.74l35.08,35.08c23.26,23.26,23.63,61.08,0.44,84.41c-8.43,8.48-18.77,13.89-29.64,16.23
		c-19.11,4.11-39.85-1.25-54.7-16.1c-12.77-12.77-18.52-29.88-17.27-46.58C454.73,561.04,452.8,555.67,448.94,551.8L448.94,551.8z"
		/>
	<path class="st5" d="M705.05,444.56c-42.13,0-77.98,26.93-91.26,64.51c-3.57,10.09-5.51,20.95-5.51,32.26
		c0,11.31,1.94,22.17,5.51,32.25c1.86,5.28,4.17,10.34,6.88,15.15c2.41,4.28,5.43,8.18,8.91,11.63l21.4,21.22l0,0l34.48,34.19
		c3.47,3.44,8.16,5.37,13.05,5.37h0c16.51,0,24.78-19.96,13.1-31.64l-50.29-50.29c-9.83-9.83-15.6-23.07-15.81-36.97
		c0-0.31-0.01-0.62-0.01-0.92c0-11.89,3.48-22.96,9.49-32.26c10.6-16.42,29.06-27.29,50.06-27.29c18.05,0,34.23,8.03,45.15,20.72
		c3.57,4.14,8.73,6.57,14.19,6.57l0,0c15.85,0,24.51-18.6,14.2-30.63C760.84,457.7,734.48,444.56,705.05,444.56z"/>
</g>
<text transform="matrix(1 0 0 1 334.0755 784.5198)" class="st1 st6 st7 st8">bringing dreams into reality</text>
<g class="st0">
	<rect x="363.54" y="661.16" class="st9" width="53.4" height="33.56"/>
	<rect x="363.54" y="404.44" class="st9" width="53.4" height="33.56"/>
	<rect x="783.06" y="661.16" class="st9" width="53.4" height="33.56"/>
	<rect x="632.43" y="737.05" class="st9" width="33.01" height="20.74"/>
	<rect x="783.06" y="404.44" class="st9" width="53.4" height="33.56"/>
</g>
</svg>
