<svg xmlns="http://www.w3.org/2000/svg" viewBox="0 0 1594.42 459.55"><defs><style>.cls-1{font-size:407.95px;font-family:Roboto-Black, Roboto;font-weight:800;letter-spacing:-0.01em;}.cls-1,.cls-2{fill:#6237a0;}</style></defs><g id="Layer_2" data-name="Layer 2"><g id="Layer_2-2" data-name="Layer 2"><text class="cls-1" transform="translate(482.3 348.99)">goddy</text><path class="cls-2" d="M349.57,53.5H40a40,40,0,0,0-40,40V403.07a40,40,0,0,0,40,40H349.57a40,40,0,0,0,40-40V93.5A40,40,0,0,0,349.57,53.5ZM339.5,200.24a33.49,33.49,0,0,1-1.56,5.13,14.68,14.68,0,0,1-24.44,3.23,46.25,46.25,0,0,0-28.61-15.88,46.94,46.94,0,0,0-48.74,24.62,45.4,45.4,0,0,0-5.29,24.86,40.6,40.6,0,0,0,11.83,26.31c13.24,13.4,26.61,26.66,39.95,40,3.18,3.18,5,6.95,4.63,11.47-.48,6.18-3.52,10.76-9.38,13s-11.24,1-15.72-3.42c-10.27-10.1-20.47-20.28-30.7-30.43-4.69-4.65-9.4-9.28-14.06-13.95-4.38-4.39-7.28-9.73-9.75-15.34a81.65,81.65,0,0,1-5-15.93c.12,2.07.26,4.14.37,6.22a68.11,68.11,0,0,1-.69,13.31,74.17,74.17,0,0,1-12,31.5c-11.65,17.2-27.59,28.44-48,32.49-26.39,5.25-49.66-1.5-69.2-20.11-11.54-11-18.62-24.55-21.68-40.18a71.54,71.54,0,0,1-1-21.21,14.69,14.69,0,0,1,29.11,0,22,22,0,0,1,.06,4.06,45.63,45.63,0,0,0,7.26,27.84c8,12.37,19.41,19.72,34.09,21.48,14.51,1.74,27.29-2.48,37.92-12.51s15.31-22.32,14.55-36.71c-.65-12.43-5.73-22.93-14.56-31.67s-17.49-17.47-26.23-26.21c-.22-.22-.4-.48-.84-1a21.24,21.24,0,0,1-1.53,1.85,40.62,40.62,0,0,1-4.41,4,16.26,16.26,0,0,1-21-24.67c8.08-8.23,16.29-16.33,24.45-24.49l.44-.35a8,8,0,0,0,.71.9q25.23,25.24,50.47,50.49a75.13,75.13,0,0,1,20.41,37.7c.1.43.2.85.35,1.51-.12-2.09-.25-3.94-.33-5.8a73.17,73.17,0,0,1,7.11-35.47c10.3-21.3,26.84-35.61,49.79-41.45,27.25-6.93,51.5-.44,72.29,18.55,1.86,1.7,3.54,3.61,5.23,5.49a13.8,13.8,0,0,1,3.51,7.72,2.69,2.69,0,0,0,.16.45Z"/></g></g></svg>